<?xml version="1.0" encoding="UTF-8"?>
<svg xmlns="http://www.w3.org/2000/svg" viewBox="0 0 1410.14 172.31">
  <defs>
    <style>.cls-1{fill:#6ae4a0;}</style>
  </defs>
  <title>jetransit-logo</title>
  <g id="Layer_2" data-name="Layer 2">
    <g id="Layer_1-2" data-name="Layer 1">
      <path class="cls-1" d="M879.24,55.92c-2.4,2.36-1.71,4.82-1.72,7q-.06,50.27,0,100.52c0,8.75,0,8.76-8.79,8.76-9.66,0-19.31,0-29,0-5.59,0-6.19-.55-6.19-5.84q0-79.87,0-159.74c0-5.65,1-6.58,6.8-6.59Q870.07,0,899.8,0c5,0,6,.66,7.61,5.45Q921.12,47.1,934.7,88.73q4.11,12.54,8.33,25c.4,1.2.61,2.62,2.49,3,1.44-1.73.89-3.79.89-5.66q.06-51,0-102c0-8.76.27-9,8.89-9,9.49,0,19,0,28.47,0,5.89,0,6.6.77,6.6,6.63q0,79.62,0,159.24c0,5.78-.5,6.29-6.24,6.3q-30,0-59.95,0c-5.6,0-5.65,0-7.4-5.33q-17.25-52.49-34.5-105C881.67,60,881.37,57.73,879.24,55.92Z"></path>
      <path class="cls-1" d="M813.93,171.18c-1.44,1.31-3.18,1-4.81,1q-15.74,0-31.47,0c-5.37,0-5.7-.23-7.42-5.43Q755.35,121.88,740.5,77c-.66-2-.81-4.28-2.91-5.8-2.41.65-2.35,3-2.92,4.69-5.61,16.85-11.12,33.72-16.65,50.59-4.34,13.24-8.63,26.5-13,39.73-2,5.95-2.08,6-8.52,6-10.16,0-20.32,0-30.47,0-1.93,0-4,.53-5.61-1.24-.73-1.76.21-3.27.71-4.8q11.73-35.7,23.52-71.38,14.43-44,28.81-88C715.68,0,715.73,0,723,0c10,0,20,0,30,0,5.48,0,6.27.57,7.94,5.64q24.44,74,48.8,147.94c1.35,4.1,2.6,8.23,3.87,12.35C814.13,167.69,815,169.41,813.93,171.18Z"></path>
      <path class="cls-1" d="M108,59.77c0,16.58.36,33.16-.08,49.73-.64,23.68-11.52,41.81-31.82,54.07a57.55,57.55,0,0,1-31.77,8.72c-13-.33-26,0-38.95-.09-5,0-5.35-.34-5.37-5.4Q0,150.89,0,135c0-5.05.61-5.61,5.86-5.63,11.82-.05,23.63.09,35.45-.06,6.86-.09,13-2,17.84-7.41,4.46-4.94,5.69-10.76,5.7-17,.07-26.85,0-53.7,0-80.56,0-6.13,0-12.27,0-18.4C65,.65,65.5.07,70.57,0q16-.08,32,0c4.83,0,5.5.68,5.51,5.51,0,18.07,0,36.14,0,54.21Z"></path>
      <path class="cls-1" d="M1117.38.88q22.23,0,44.46,0c5.89,0,6.36.46,6.38,6.16q.06,15.42,0,30.85c0,5.38-.57,5.9-6.12,5.91-27.81,0-55.62,0-83.43,0-8.91,0-16.25,3.14-20.9,11.19-4.26,7.38-3.17,17.89,2.67,24.13,2.83,3,5.9,5.85,8.75,8.87,2.58,2.72,2.62,3.49-.08,6.21q-11.4,11.51-23,22.85c-3.07,3-4,3-7.76.35-14.55-10.38-23.34-24.48-25.88-42-3.72-25.76,5.43-46.59,26.18-62.14A60.16,60.16,0,0,1,1075.42.91h42Z"></path>
      <path class="cls-1" d="M1062.7,172.22q-22.47,0-44.94,0c-5.9,0-6.34-.42-6.36-6.14q-.06-15.42,0-30.84c0-5.39.55-5.9,6.1-5.91q41.7,0,83.39,0c7.94,0,14.75-2.61,19.5-9.16,6.17-8.53,5.34-18.94-2-26.9-2.47-2.69-5.18-5.15-7.71-7.79-3-3.11-3-3.77.13-6.93q11.06-11.13,22.24-22.15c3.43-3.38,4.49-3.47,8.53-.41a64.45,64.45,0,0,1,25.57,41.77c5.71,32.74-17,64.81-48.75,72.68a57.42,57.42,0,0,1-14.29,1.81c-13.81-.09-27.63,0-41.44,0Z"></path>
      <path class="cls-1" d="M536.93.88c13.14,0,26.29.24,39.43-.07C590.49.49,602.87,5.11,614,13.24c12.78,9.32,21.63,21.64,25.14,37.08,4.27,18.85,1.06,36.53-10.41,52.43A63.87,63.87,0,0,1,614,117.44c-3.38,2.42-4.46,2.47-7.28-.44-7.18-7.38-15.29-13.78-22.33-21.3-4-4.31-4.11-5.09.06-9.34,2.1-2.13,4.14-4.33,6.36-6.32,7.65-6.88,8.58-18.6,2.56-27.17-4.42-6.29-10.75-9.1-18.41-9.1H501.57c-3.83,0-7.66.06-11.49,0-4.77-.09-5.39-.69-5.42-5.58-.06-10.44,0-20.89,0-31.33,0-5.73.21-5.94,5.85-5.95Q513.71.85,536.93.88Z"></path>
      <path class="cls-1" d="M1232.3,86.56v77.58c0,1.32-.07,2.65,0,4,.15,3-1.31,4.15-4.22,4.1-5-.08-10,0-15,0-6.49,0-13,.07-19.47,0-3.82-.06-4.24-.58-4.42-4.35,0-1.16,0-2.32,0-3.48q0-77.84,0-155.66c0-.5,0-1,0-1.49,0-6.58.53-7.13,7.06-7.16Q1211,0,1225.72,0c6.19,0,6.57.38,6.57,6.46Q1232.32,46.53,1232.3,86.56Z"></path>
      <path class="cls-1" d="M311.42,43.75c-3.65-.22-4.38-.87-4.53-4.44-.14-3.15-.05-6.3-.05-9.45,0-8.13,0-16.25,0-24.37,0-4.37.91-5.18,5.25-5.43,1.33-.08,2.67,0,4,0h140.3c6.44.06,7.24.8,7.26,7.14q0,14.93,0,29.84c0,6.14-.68,6.76-7,6.76C432.75,43.79,312.74,43.83,311.42,43.75Z"></path>
      <path class="cls-1" d="M208,64.67h69.41c1.33,0,2.67,0,4,0,3.57.23,4.34.92,4.45,4.53.13,4.14.05,8.29.05,12.43,0,6.63,0,13.27,0,19.9s-.31,6.83-6.67,6.85c-11.32,0-22.64,0-34,0H138.87c-1.5,0-3,.06-4.5,0-4-.22-5.26-1.26-5.3-5q-.18-16.9,0-33.81c0-3.51,1.37-4.69,5-4.81,4.65-.16,9.31-.06,14-.06Z"></path>
      <path class="cls-1" d="M207.48,43.78q-35.68,0-71.37,0c-6.51,0-7.07-.55-7.1-7.1Q129,21.74,129,6.84c0-5.8,1-6.79,6.6-6.8q71.87,0,143.73,0c5.43,0,6.46,1,6.5,6.38q.09,15.66,0,31.31c0,5.51-.51,6-6,6Q243.66,43.81,207.48,43.78Z"></path>
      <path class="cls-1" d="M1259.22,43.76c-4.26-.16-4.93-.79-5.09-4.91-.08-2.15,0-4.31,0-6.46,0-8.62,0-17.24,0-25.86,0-6.12.37-6.49,6.52-6.49,34.28,0,142.95-.06,144.28,0,4.3.27,5.15,1.09,5.18,5.49.07,9.78,0,19.56,0,29.34,0,1.33,0,2.66,0,4-.18,4.11-.83,4.73-5.11,4.89C1403.67,43.81,1260.55,43.81,1259.22,43.76Z"></path>
      <path class="cls-1" d="M207.27,172.21H137.85c-1.16,0-2.33,0-3.49,0-4.58-.14-5.26-.71-5.33-5.17-.09-5.64,0-11.28,0-16.91,0-5.14-.06-10.29,0-15.42.07-4.59.73-5.2,5.16-5.37,1,0,2,0,3,0H277.51c1.16,0,2.33,0,3.49,0,3.95.2,4.78.84,4.81,4.69q.15,16.66,0,33.33c0,4.31-.81,4.85-6.14,4.85Q243.49,172.25,207.27,172.21Z"></path>
      <path class="cls-1" d="M1310.15,118.33q0-23.64,0-47.28c0-5.88.46-6.34,6.16-6.36q15.75-.06,31.48,0c5.5,0,6.24.74,6.26,6.45.06,12.77,0,25.54,0,38.32q0,28.11,0,56.23c0,6.16-.36,6.5-6.52,6.52q-15.48,0-31,0c-6.07,0-6.42-.37-6.43-6.59Q1310.13,142,1310.15,118.33Z"></path>
      <path class="cls-1" d="M406.81,118.94q0,23.64,0,47.26c0,5.76-.22,6-5.8,6q-16,.06-32,0c-5.29,0-6.15-.78-6.15-6q-.07-47.76,0-95.51c0-4.74,1.2-5.91,5.93-5.94q16.23-.12,32.46,0c4.86,0,5.49.64,5.5,5.5C406.84,86.45,406.81,102.69,406.81,118.94Z"></path>
      <path class="cls-1" d="M527.77,118.92q0,23.64,0,47.27c0,5.77-.22,6-5.79,6q-15.74.06-31.48,0c-5.51,0-5.81-.26-5.81-5.47q0-48,0-96c0-5.5.5-6,6-6q15.5-.07,31,0c5.58,0,6,.48,6.07,6Q527.8,94.78,527.77,118.92Z"></path>
      <path class="cls-1" d="M638,170.42c-.91,2-2.73,1.77-4.33,1.78-17,0-34,0-50.94,0a8.2,8.2,0,0,1-6.2-2.6c-11.15-11.18-22.37-22.27-33.51-33.46-3.12-3.13-3.13-4.39-.07-7.49q11.73-11.89,23.61-23.63c3.23-3.2,3.87-3.16,7.31.23q12.58,12.45,25.08,25Q616.83,148,634.63,165.8C636,167.16,637.91,168.19,638,170.42Z"></path>
    </g>
  </g>
</svg>
